<?xml version="1.0" encoding="UTF-8"?>
<svg xmlns="http://www.w3.org/2000/svg" xmlns:xlink="http://www.w3.org/1999/xlink" width="1600" height="860" viewBox="0 0 1600 860">
<rect x="-160" y="-86" width="1920" height="1032" fill="rgb(3.137255%, 9.019608%, 18.431373%)" fill-opacity="1"/>
<path fill="none" stroke-width="34" stroke-linecap="round" stroke-linejoin="round" stroke="rgb(95.686275%, 94.117647%, 90.980392%)" stroke-opacity="1" stroke-miterlimit="10" d="M 761.292969 440.246094 C 690.019531 422.476562 640 358.457031 640 285 C 640 211.542969 690.019531 147.523438 761.292969 129.753906 "/>
<path fill="none" stroke-width="34" stroke-linecap="round" stroke-linejoin="round" stroke="rgb(95.686275%, 94.117647%, 90.980392%)" stroke-opacity="1" stroke-miterlimit="10" d="M 838.707031 129.753906 C 909.980469 147.523438 960 211.542969 960 285 C 960 358.457031 909.980469 422.476562 838.707031 440.246094 "/>
<path fill="none" stroke-width="28" stroke-linecap="round" stroke-linejoin="round" stroke="rgb(12.54902%, 84.313725%, 90.196078%)" stroke-opacity="1" stroke-miterlimit="10" d="M 674 285 L 674.503906 283.867188 L 675.011719 282.734375 L 675.515625 281.601562 L 676.523438 279.34375 L 677.03125 278.214844 L 677.535156 277.089844 L 678.039062 275.96875 L 678.546875 274.851562 L 679.050781 273.734375 L 680.058594 271.515625 L 680.566406 270.414062 L 681.574219 268.226562 L 682.082031 267.144531 L 682.585938 266.0625 L 683.089844 264.992188 L 683.59375 263.925781 L 684.101562 262.871094 L 684.605469 261.820312 L 685.109375 260.78125 L 685.613281 259.746094 L 686.121094 258.722656 L 686.625 257.710938 L 687.128906 256.707031 L 687.636719 255.710938 L 688.140625 254.726562 L 688.644531 253.753906 L 689.148438 252.792969 L 689.65625 251.84375 L 690.160156 250.902344 L 690.664062 249.976562 L 691.171875 249.0625 L 691.675781 248.164062 L 692.179688 247.273438 L 692.683594 246.402344 L 693.191406 245.539062 L 693.695312 244.691406 L 694.199219 243.859375 L 694.707031 243.042969 L 695.210938 242.242188 L 695.714844 241.453125 L 696.21875 240.683594 L 696.726562 239.925781 L 697.230469 239.1875 L 697.734375 238.460938 L 698.242188 237.753906 L 698.746094 237.066406 L 699.25 236.390625 L 699.753906 235.738281 L 700.261719 235.097656 L 700.765625 234.476562 L 701.269531 233.875 L 701.777344 233.292969 L 702.28125 232.726562 L 702.785156 232.179688 L 703.289062 231.652344 L 703.796875 231.140625 L 704.300781 230.652344 L 704.804688 230.183594 L 705.3125 229.730469 L 705.816406 229.300781 L 706.320312 228.890625 L 706.824219 228.496094 L 707.332031 228.125 L 707.835938 227.777344 L 708.339844 227.445312 L 708.84375 227.136719 L 709.351562 226.847656 L 709.855469 226.578125 L 710.359375 226.328125 L 710.867188 226.101562 L 711.371094 225.898438 L 711.875 225.710938 L 712.378906 225.546875 L 712.886719 225.40625 L 713.390625 225.285156 L 713.894531 225.1875 L 714.402344 225.105469 L 714.90625 225.050781 L 715.410156 225.015625 L 715.914062 225 L 716.421875 225.007812 L 716.925781 225.035156 L 717.429688 225.085938 L 717.9375 225.15625 L 718.441406 225.25 L 718.945312 225.363281 L 719.449219 225.5 L 719.957031 225.65625 L 720.460938 225.832031 L 720.964844 226.03125 L 721.472656 226.25 L 721.976562 226.492188 L 722.480469 226.753906 L 722.984375 227.035156 L 723.492188 227.339844 L 723.996094 227.664062 L 724.5 228.007812 L 725.007812 228.371094 L 725.511719 228.757812 L 726.015625 229.160156 L 726.519531 229.585938 L 727.027344 230.03125 L 727.53125 230.492188 L 728.035156 230.976562 L 728.542969 231.480469 L 729.046875 232 L 729.550781 232.542969 L 730.054688 233.101562 L 730.5625 233.679688 L 731.066406 234.277344 L 731.570312 234.890625 L 732.074219 235.523438 L 732.582031 236.171875 L 733.085938 236.839844 L 733.589844 237.523438 L 734.097656 238.226562 L 734.601562 238.941406 L 735.105469 239.675781 L 735.609375 240.429688 L 736.117188 241.195312 L 736.621094 241.976562 L 737.125 242.773438 L 737.632812 243.585938 L 738.136719 244.414062 L 738.640625 245.257812 L 739.144531 246.113281 L 739.652344 246.980469 L 740.15625 247.867188 L 740.660156 248.761719 L 741.167969 249.671875 L 741.671875 250.59375 L 742.175781 251.527344 L 742.679688 252.476562 L 743.1875 253.433594 L 743.691406 254.402344 L 744.195312 255.382812 L 744.703125 256.375 L 745.207031 257.375 L 745.710938 258.386719 L 746.214844 259.40625 L 746.722656 260.433594 L 747.226562 261.472656 L 747.730469 262.519531 L 748.238281 263.574219 L 748.742188 264.636719 L 749.246094 265.707031 L 749.75 266.78125 L 750.257812 267.867188 L 750.761719 268.953125 L 751.265625 270.050781 L 751.773438 271.148438 L 752.277344 272.253906 L 752.78125 273.363281 L 753.285156 274.476562 L 753.792969 275.59375 L 754.296875 276.714844 L 755.304688 278.964844 L 755.8125 280.09375 L 756.316406 281.226562 L 756.820312 282.355469 L 757.328125 283.488281 L 758.839844 286.886719 L 759.347656 288.019531 L 759.851562 289.152344 L 760.355469 290.28125 L 760.863281 291.410156 L 761.367188 292.535156 L 762.375 294.777344 L 762.882812 295.894531 L 763.386719 297.007812 L 763.890625 298.113281 L 764.398438 299.21875 L 764.902344 300.316406 L 765.40625 301.410156 L 765.910156 302.496094 L 766.417969 303.578125 L 766.921875 304.652344 L 767.425781 305.71875 L 767.933594 306.777344 L 768.4375 307.828125 L 768.941406 308.875 L 769.445312 309.910156 L 769.953125 310.9375 L 770.457031 311.953125 L 770.960938 312.960938 L 771.46875 313.957031 L 771.972656 314.945312 L 772.476562 315.921875 L 772.980469 316.886719 L 773.488281 317.84375 L 773.992188 318.785156 L 774.496094 319.714844 L 775.003906 320.632812 L 775.507812 321.539062 L 776.011719 322.429688 L 776.515625 323.308594 L 777.023438 324.175781 L 777.527344 325.027344 L 778.03125 325.863281 L 778.535156 326.683594 L 779.042969 327.492188 L 779.546875 328.285156 L 780.050781 329.0625 L 780.558594 329.824219 L 781.0625 330.570312 L 781.566406 331.296875 L 782.070312 332.011719 L 782.578125 332.707031 L 783.082031 333.386719 L 783.585938 334.046875 L 784.09375 334.691406 L 784.597656 335.316406 L 785.101562 335.925781 L 785.605469 336.515625 L 786.113281 337.085938 L 786.617188 337.640625 L 787.121094 338.175781 L 787.628906 338.691406 L 788.132812 339.1875 L 788.636719 339.664062 L 789.140625 340.121094 L 789.648438 340.558594 L 790.152344 340.976562 L 790.65625 341.375 L 791.164062 341.753906 L 791.667969 342.109375 L 792.171875 342.445312 L 792.675781 342.765625 L 793.183594 343.058594 L 793.6875 343.335938 L 794.191406 343.589844 L 794.699219 343.824219 L 795.203125 344.035156 L 795.707031 344.226562 L 796.210938 344.398438 L 796.71875 344.546875 L 797.222656 344.675781 L 797.726562 344.785156 L 798.234375 344.867188 L 798.738281 344.933594 L 799.242188 344.976562 L 799.746094 344.996094 L 800.253906 344.996094 L 800.757812 344.976562 L 801.261719 344.933594 L 801.765625 344.867188 L 802.273438 344.785156 L 802.777344 344.675781 L 803.28125 344.546875 L 803.789062 344.398438 L 804.292969 344.226562 L 804.796875 344.035156 L 805.300781 343.824219 L 805.808594 343.589844 L 806.3125 343.335938 L 806.816406 343.058594 L 807.324219 342.765625 L 807.828125 342.445312 L 808.332031 342.109375 L 808.835938 341.753906 L 809.34375 341.375 L 809.847656 340.976562 L 810.351562 340.558594 L 810.859375 340.121094 L 811.363281 339.664062 L 811.867188 339.1875 L 812.371094 338.691406 L 812.878906 338.175781 L 813.382812 337.640625 L 813.886719 337.085938 L 814.394531 336.515625 L 814.898438 335.925781 L 815.402344 335.316406 L 815.90625 334.691406 L 816.414062 334.046875 L 816.917969 333.386719 L 817.421875 332.707031 L 817.929688 332.011719 L 818.433594 331.296875 L 818.9375 330.570312 L 819.441406 329.824219 L 819.949219 329.0625 L 820.453125 328.285156 L 820.957031 327.492188 L 821.464844 326.683594 L 821.96875 325.863281 L 822.472656 325.027344 L 822.976562 324.175781 L 823.484375 323.308594 L 823.988281 322.429688 L 824.492188 321.539062 L 824.996094 320.632812 L 825.503906 319.714844 L 826.007812 318.785156 L 826.511719 317.84375 L 827.019531 316.886719 L 827.523438 315.921875 L 828.027344 314.945312 L 828.53125 313.957031 L 829.039062 312.960938 L 829.542969 311.953125 L 830.046875 310.9375 L 830.554688 309.910156 L 831.058594 308.875 L 831.5625 307.828125 L 832.066406 306.777344 L 832.574219 305.71875 L 833.078125 304.652344 L 833.582031 303.578125 L 834.089844 302.496094 L 834.59375 301.410156 L 835.097656 300.316406 L 835.601562 299.21875 L 836.109375 298.113281 L 836.613281 297.007812 L 837.117188 295.894531 L 837.625 294.777344 L 838.632812 292.535156 L 839.136719 291.410156 L 839.644531 290.28125 L 840.148438 289.152344 L 840.652344 288.019531 L 841.160156 286.886719 L 842.671875 283.488281 L 843.179688 282.355469 L 843.683594 281.226562 L 844.1875 280.09375 L 844.695312 278.964844 L 845.703125 276.714844 L 846.207031 275.59375 L 846.714844 274.476562 L 847.21875 273.363281 L 847.722656 272.253906 L 848.226562 271.148438 L 848.734375 270.050781 L 849.238281 268.953125 L 849.742188 267.867188 L 850.25 266.78125 L 850.753906 265.707031 L 851.257812 264.636719 L 851.761719 263.574219 L 852.269531 262.519531 L 852.773438 261.472656 L 853.277344 260.433594 L 853.785156 259.40625 L 854.289062 258.386719 L 854.792969 257.375 L 855.296875 256.375 L 855.804688 255.382812 L 856.308594 254.402344 L 856.8125 253.433594 L 857.320312 252.476562 L 857.824219 251.527344 L 858.328125 250.59375 L 858.832031 249.671875 L 859.339844 248.761719 L 859.84375 247.867188 L 860.347656 246.980469 L 860.855469 246.113281 L 861.359375 245.257812 L 861.863281 244.414062 L 862.367188 243.585938 L 862.875 242.773438 L 863.378906 241.976562 L 863.882812 241.195312 L 864.390625 240.429688 L 864.894531 239.675781 L 865.398438 238.941406 L 865.902344 238.226562 L 866.410156 237.523438 L 866.914062 236.839844 L 867.417969 236.171875 L 867.925781 235.523438 L 868.429688 234.890625 L 868.933594 234.277344 L 869.4375 233.679688 L 869.945312 233.101562 L 870.449219 232.542969 L 870.953125 232 L 871.457031 231.480469 L 871.964844 230.976562 L 872.46875 230.492188 L 872.972656 230.03125 L 873.480469 229.585938 L 873.984375 229.160156 L 874.488281 228.757812 L 874.992188 228.371094 L 875.5 228.007812 L 876.003906 227.664062 L 876.507812 227.339844 L 877.015625 227.035156 L 877.519531 226.753906 L 878.023438 226.492188 L 878.527344 226.25 L 879.035156 226.03125 L 879.539062 225.832031 L 880.042969 225.65625 L 880.550781 225.5 L 881.054688 225.363281 L 881.558594 225.25 L 882.0625 225.15625 L 882.570312 225.085938 L 883.074219 225.035156 L 883.578125 225.007812 L 884.085938 225 L 884.589844 225.015625 L 885.09375 225.050781 L 885.597656 225.105469 L 886.105469 225.1875 L 886.609375 225.285156 L 887.113281 225.40625 L 887.621094 225.546875 L 888.125 225.710938 L 888.628906 225.898438 L 889.132812 226.101562 L 889.640625 226.328125 L 890.144531 226.578125 L 890.648438 226.847656 L 891.15625 227.136719 L 891.660156 227.445312 L 892.164062 227.777344 L 892.667969 228.125 L 893.175781 228.496094 L 893.679688 228.890625 L 894.183594 229.300781 L 894.6875 229.730469 L 895.195312 230.183594 L 895.699219 230.652344 L 896.203125 231.140625 L 896.710938 231.652344 L 897.214844 232.179688 L 897.71875 232.726562 L 898.222656 233.292969 L 898.730469 233.875 L 899.234375 234.476562 L 899.738281 235.097656 L 900.246094 235.738281 L 900.75 236.390625 L 901.253906 237.066406 L 901.757812 237.753906 L 902.265625 238.460938 L 902.769531 239.1875 L 903.273438 239.925781 L 903.78125 240.683594 L 904.285156 241.453125 L 904.789062 242.242188 L 905.292969 243.042969 L 905.800781 243.859375 L 906.304688 244.691406 L 906.808594 245.539062 L 907.316406 246.402344 L 907.820312 247.273438 L 908.324219 248.164062 L 908.828125 249.0625 L 909.335938 249.976562 L 909.839844 250.902344 L 910.34375 251.84375 L 910.851562 252.792969 L 911.355469 253.753906 L 911.859375 254.726562 L 912.363281 255.710938 L 912.871094 256.707031 L 913.375 257.710938 L 913.878906 258.722656 L 914.386719 259.746094 L 914.890625 260.78125 L 915.394531 261.820312 L 915.898438 262.871094 L 916.40625 263.925781 L 916.910156 264.992188 L 917.414062 266.0625 L 917.917969 267.144531 L 918.425781 268.226562 L 919.433594 270.414062 L 919.941406 271.515625 L 920.949219 273.734375 L 921.453125 274.851562 L 921.960938 275.96875 L 922.464844 277.089844 L 922.96875 278.214844 L 923.476562 279.34375 L 924.484375 281.601562 L 924.988281 282.734375 L 925.496094 283.867188 L 926 285 "/>
<path fill-rule="nonzero" fill="rgb(95.686275%, 94.117647%, 90.980392%)" fill-opacity="1" d="M 464.71875 641.203125 C 484.484375 641.203125 498.875 625.65625 498.875 602.9375 C 498.875 580.140625 484.484375 564.59375 464.71875 564.59375 C 444.9375 564.59375 430.59375 580.140625 430.59375 602.9375 C 430.59375 625.609375 444.9375 641.203125 464.71875 641.203125 Z M 464.71875 631.078125 C 451.90625 631.078125 441.703125 621.03125 441.703125 602.9375 C 441.703125 584.765625 451.90625 574.703125 464.71875 574.703125 C 477.515625 574.703125 487.765625 584.765625 487.765625 602.9375 C 487.765625 621.03125 477.515625 631.078125 464.71875 631.078125 Z M 508.835938 660.8125 L 519.351562 660.8125 L 519.351562 632.078125 L 519.492188 632.078125 C 523.039062 638.109375 528.664062 641.046875 535.539062 641.046875 C 549.226562 641.046875 558.351562 629.984375 558.351562 613.703125 C 558.351562 597.46875 549.179688 586.359375 535.585938 586.359375 C 528.757812 586.359375 522.632812 589.203125 519.304688 594.96875 L 519.148438 594.96875 L 519.148438 587.40625 L 508.835938 587.40625 Z M 533.398438 631.984375 C 524.429688 631.984375 518.648438 624.765625 518.648438 613.703125 C 518.648438 602.640625 524.429688 595.375 533.398438 595.375 C 541.867188 595.375 547.695312 601.796875 547.695312 613.703125 C 547.695312 625.5625 541.867188 631.984375 533.398438 631.984375 Z M 590.074219 641.203125 C 601.980469 641.203125 611.339844 634.171875 613.277344 624.015625 L 603.167969 624.015625 C 601.683594 629 597.089844 632.421875 590.214844 632.421875 C 581.011719 632.421875 575.730469 626 575.386719 616.546875 L 614.074219 616.546875 L 614.074219 613.703125 C 614.074219 597.46875 604.417969 586.203125 589.527344 586.203125 C 575.183594 586.203125 565.027344 597.765625 565.027344 613.796875 C 565.027344 629.6875 574.480469 641.203125 590.074219 641.203125 Z M 575.480469 608.578125 C 576.371094 600.203125 581.699219 594.96875 589.621094 594.96875 C 597.589844 594.96875 602.964844 600.203125 603.824219 608.578125 Z M 633.652344 609.71875 C 633.652344 599.953125 639.183594 595.765625 646.355469 595.765625 C 653.621094 595.765625 657.855469 600.109375 657.855469 608.515625 L 657.855469 640 L 668.371094 640 L 668.371094 607.234375 C 668.371094 593.484375 660.152344 586.359375 649.339844 586.359375 C 642.417969 586.359375 637.042969 589.34375 633.449219 595.328125 L 633.449219 587.40625 L 623.136719 587.40625 L 623.136719 640 L 633.652344 640 Z M 705.375 640 L 716.28125 640 L 716.28125 599.5625 C 716.28125 594.53125 716.078125 587.453125 715.921875 580.734375 C 718.609375 588.40625 721.109375 595.46875 722.65625 599.5625 L 738.4375 640 L 747.5 640 L 763.140625 599.5625 C 764.734375 595.328125 767.28125 587.75 770.015625 579.6875 C 769.859375 586.703125 769.671875 594.28125 769.671875 599.5625 L 769.671875 640 L 780.515625 640 L 780.515625 565.796875 L 764.890625 565.796875 L 748.5 609.265625 C 747.203125 613.0625 744.765625 620.078125 743.0625 625.203125 C 741.375 620.078125 738.9375 613.0625 737.59375 609.265625 L 720.953125 565.796875 L 705.375 565.796875 Z M 815.828125 641.203125 C 830.875 641.203125 840.984375 629.984375 840.984375 613.796875 C 840.984375 597.515625 830.875 586.203125 815.828125 586.203125 C 800.796875 586.203125 790.640625 597.515625 790.640625 613.796875 C 790.640625 629.984375 800.796875 641.203125 815.828125 641.203125 Z M 815.828125 632.125 C 806.828125 632.125 801.296875 625.015625 801.296875 613.796875 C 801.296875 602.5 806.875 595.28125 815.828125 595.28125 C 824.796875 595.28125 830.375 602.5 830.375 613.796875 C 830.375 624.953125 824.84375 632.125 815.828125 632.125 Z M 870.515625 641.046875 C 877.390625 641.046875 883.265625 638.109375 886.8125 631.984375 L 886.90625 631.984375 L 886.90625 640 L 897.21875 640 L 897.21875 565.796875 L 886.703125 565.796875 L 886.703125 595.03125 L 886.609375 595.03125 C 883.21875 589.203125 877.296875 586.359375 870.46875 586.359375 C 856.875 586.359375 847.71875 597.46875 847.71875 613.703125 C 847.71875 629.984375 856.828125 641.046875 870.515625 641.046875 Z M 872.671875 631.984375 C 864.203125 631.984375 858.375 625.5625 858.375 613.703125 C 858.375 601.796875 864.203125 595.375 872.671875 595.375 C 881.625 595.375 887.40625 602.640625 887.40625 613.703125 C 887.40625 624.765625 881.625 631.984375 872.671875 631.984375 Z M 931.535156 641.203125 C 943.441406 641.203125 952.800781 634.171875 954.738281 624.015625 L 944.628906 624.015625 C 943.144531 629 938.550781 632.421875 931.675781 632.421875 C 922.472656 632.421875 917.191406 626 916.847656 616.546875 L 955.535156 616.546875 L 955.535156 613.703125 C 955.535156 597.46875 945.878906 586.203125 930.988281 586.203125 C 916.644531 586.203125 906.488281 597.765625 906.488281 613.796875 C 906.488281 629.6875 915.941406 641.203125 931.535156 641.203125 Z M 916.941406 608.578125 C 917.832031 600.203125 923.160156 594.96875 931.082031 594.96875 C 939.050781 594.96875 944.425781 600.203125 945.285156 608.578125 Z M 975.113281 565.796875 L 964.597656 565.796875 L 964.597656 640 L 975.113281 640 Z M 1012.125 640 L 1058.28125 640 L 1058.28125 630.28125 L 1023.171875 630.28125 L 1023.171875 565.796875 L 1012.125 565.796875 Z M 1082.644531 640.84375 C 1091.707031 640.84375 1095.988281 636.765625 1098.175781 632.53125 L 1098.378906 632.53125 L 1098.378906 640 L 1108.738281 640 L 1108.738281 603.9375 C 1108.738281 593.234375 1100.816406 586.359375 1087.863281 586.359375 C 1074.722656 586.359375 1066.207031 593.4375 1065.707031 603.4375 L 1076.019531 603.4375 C 1076.410156 598.609375 1081.003906 594.96875 1087.722656 594.96875 C 1094.394531 594.96875 1098.332031 598.65625 1098.332031 603.734375 L 1098.332031 604.1875 C 1098.332031 608.03125 1095.035156 607.921875 1085.175781 609.125 C 1074.472656 610.359375 1064.410156 612.953125 1064.410156 624.953125 C 1064.410156 635.46875 1072.175781 640.84375 1082.644531 640.84375 Z M 1084.785156 632.375 C 1078.660156 632.375 1074.863281 629.6875 1074.863281 625.15625 C 1074.863281 619.828125 1080.050781 617.78125 1085.785156 616.9375 C 1091.363281 616.140625 1096.941406 615.296875 1098.378906 614.15625 L 1098.378906 620.328125 C 1098.378906 626.796875 1094.050781 632.375 1084.785156 632.375 Z M 1147.289062 641.046875 C 1160.976562 641.046875 1170.101562 629.984375 1170.101562 613.703125 C 1170.101562 597.46875 1160.929688 586.359375 1147.335938 586.359375 C 1140.507812 586.359375 1134.585938 589.203125 1131.195312 595.03125 L 1131.101562 595.03125 L 1131.101562 565.796875 L 1120.585938 565.796875 L 1120.585938 640 L 1130.898438 640 L 1130.898438 631.984375 L 1131.007812 631.984375 C 1134.539062 638.109375 1140.414062 641.046875 1147.289062 641.046875 Z M 1145.148438 631.984375 C 1136.179688 631.984375 1130.398438 624.765625 1130.398438 613.703125 C 1130.398438 602.640625 1136.179688 595.375 1145.148438 595.375 C 1153.617188 595.375 1159.445312 601.796875 1159.445312 613.703125 C 1159.445312 625.5625 1153.617188 631.984375 1145.148438 631.984375 Z M 1173.433594 640 "/>
</svg>
