<?xml version="1.0" encoding="UTF-8"?>
<svg xmlns="http://www.w3.org/2000/svg" xmlns:xlink="http://www.w3.org/1999/xlink" width="1024" height="1024" viewBox="0 0 1024 1024">
<rect x="-102.4" y="-102.4" width="1228.8" height="1228.8" fill="rgb(3.137255%, 9.019608%, 18.431373%)" fill-opacity="1"/>
<path fill="none" stroke-width="54" stroke-linecap="round" stroke-linejoin="round" stroke="rgb(95.686275%, 94.117647%, 90.980392%)" stroke-opacity="1" stroke-miterlimit="10" d="M 451.519531 754.574219 C 340.152344 726.808594 262 626.777344 262 512 C 262 397.222656 340.152344 297.191406 451.519531 269.425781 "/>
<path fill="none" stroke-width="54" stroke-linecap="round" stroke-linejoin="round" stroke="rgb(95.686275%, 94.117647%, 90.980392%)" stroke-opacity="1" stroke-miterlimit="10" d="M 572.480469 269.425781 C 683.847656 297.191406 762 397.222656 762 512 C 762 626.777344 683.847656 726.808594 572.480469 754.574219 "/>
<path fill="none" stroke-width="44" stroke-linecap="round" stroke-linejoin="round" stroke="rgb(12.54902%, 84.313725%, 90.196078%)" stroke-opacity="1" stroke-miterlimit="10" d="M 315 512 L 315.789062 510.226562 L 316.578125 508.449219 L 317.367188 506.675781 L 318.160156 504.90625 L 318.949219 503.136719 L 319.738281 501.371094 L 320.527344 499.609375 L 321.316406 497.851562 L 322.105469 496.097656 L 322.894531 494.351562 L 323.683594 492.609375 L 324.476562 490.878906 L 325.265625 489.152344 L 326.054688 487.433594 L 326.84375 485.722656 L 327.632812 484.023438 L 328.421875 482.332031 L 329.210938 480.65625 L 330.003906 478.988281 L 330.792969 477.332031 L 331.582031 475.6875 L 332.371094 474.054688 L 333.160156 472.4375 L 333.949219 470.835938 L 334.738281 469.246094 L 335.527344 467.671875 L 336.320312 466.113281 L 337.109375 464.574219 L 337.898438 463.050781 L 338.6875 461.542969 L 339.476562 460.054688 L 340.265625 458.582031 L 341.054688 457.132812 L 341.84375 455.699219 L 342.636719 454.289062 L 343.425781 452.898438 L 344.214844 451.527344 L 345.003906 450.179688 L 345.792969 448.851562 L 346.582031 447.550781 L 347.371094 446.269531 L 348.164062 445.011719 L 348.953125 443.777344 L 349.742188 442.566406 L 350.53125 441.382812 L 351.320312 440.226562 L 352.109375 439.089844 L 352.898438 437.984375 L 353.6875 436.902344 L 354.480469 435.847656 L 355.269531 434.820312 L 356.058594 433.820312 L 356.847656 432.847656 L 357.636719 431.90625 L 358.425781 430.992188 L 359.214844 430.105469 L 360.007812 429.25 L 360.796875 428.421875 L 361.585938 427.625 L 362.375 426.855469 L 363.164062 426.117188 L 363.953125 425.414062 L 364.742188 424.738281 L 365.53125 424.09375 L 366.324219 423.480469 L 367.113281 422.898438 L 367.902344 422.347656 L 368.691406 421.832031 L 369.480469 421.34375 L 370.269531 420.890625 L 371.058594 420.472656 L 371.851562 420.082031 L 372.640625 419.726562 L 373.429688 419.40625 L 374.21875 419.117188 L 375.007812 418.859375 L 375.796875 418.636719 L 376.585938 418.445312 L 377.375 418.289062 L 378.167969 418.167969 L 378.957031 418.078125 L 379.746094 418.023438 L 380.535156 418 L 381.324219 418.011719 L 382.113281 418.054688 L 382.902344 418.132812 L 383.695312 418.246094 L 384.484375 418.390625 L 385.273438 418.570312 L 386.0625 418.78125 L 386.851562 419.027344 L 387.640625 419.304688 L 388.429688 419.617188 L 389.21875 419.960938 L 390.011719 420.339844 L 390.800781 420.746094 L 391.589844 421.191406 L 392.378906 421.664062 L 393.167969 422.171875 L 393.957031 422.710938 L 394.746094 423.28125 L 395.535156 423.882812 L 396.328125 424.519531 L 397.117188 425.183594 L 397.90625 425.878906 L 398.695312 426.605469 L 399.484375 427.363281 L 400.273438 428.152344 L 401.0625 428.96875 L 401.855469 429.816406 L 402.644531 430.691406 L 403.433594 431.597656 L 404.222656 432.53125 L 405.011719 433.496094 L 405.800781 434.484375 L 406.589844 435.503906 L 407.378906 436.546875 L 408.171875 437.621094 L 408.960938 438.71875 L 409.75 439.84375 L 410.539062 440.996094 L 411.328125 442.171875 L 412.117188 443.371094 L 412.90625 444.597656 L 413.699219 445.847656 L 414.488281 447.121094 L 415.277344 448.414062 L 416.066406 449.734375 L 416.855469 451.074219 L 417.644531 452.4375 L 418.433594 453.824219 L 419.222656 455.226562 L 420.015625 456.652344 L 420.804688 458.097656 L 421.59375 459.5625 L 422.382812 461.042969 L 423.171875 462.546875 L 423.960938 464.0625 L 424.75 465.597656 L 425.542969 467.152344 L 426.332031 468.71875 L 427.121094 470.304688 L 427.910156 471.902344 L 428.699219 473.515625 L 429.488281 475.140625 L 430.277344 476.78125 L 431.066406 478.433594 L 431.859375 480.097656 L 432.648438 481.773438 L 433.4375 483.460938 L 434.226562 485.15625 L 435.015625 486.863281 L 435.804688 488.578125 L 436.59375 490.300781 L 437.386719 492.03125 L 438.175781 493.769531 L 438.964844 495.515625 L 439.753906 497.265625 L 441.332031 500.78125 L 442.121094 502.546875 L 442.910156 504.316406 L 443.703125 506.085938 L 446.070312 511.40625 L 446.859375 513.183594 L 447.648438 514.957031 L 448.4375 516.734375 L 449.226562 518.503906 L 450.019531 520.273438 L 450.808594 522.042969 L 451.597656 523.804688 L 452.386719 525.5625 L 453.175781 527.316406 L 453.964844 529.066406 L 454.753906 530.808594 L 455.546875 532.546875 L 456.335938 534.273438 L 457.125 535.996094 L 457.914062 537.707031 L 458.703125 539.410156 L 459.492188 541.105469 L 460.28125 542.785156 L 461.070312 544.457031 L 461.863281 546.117188 L 462.652344 547.765625 L 463.441406 549.402344 L 464.230469 551.023438 L 465.019531 552.632812 L 465.808594 554.226562 L 466.597656 555.804688 L 467.390625 557.367188 L 468.179688 558.914062 L 468.96875 560.445312 L 469.757812 561.957031 L 470.546875 563.453125 L 471.335938 564.929688 L 472.125 566.386719 L 472.914062 567.824219 L 473.707031 569.242188 L 474.496094 570.640625 L 475.285156 572.019531 L 476.074219 573.375 L 476.863281 574.707031 L 477.652344 576.019531 L 478.441406 577.308594 L 479.234375 578.574219 L 480.023438 579.8125 L 480.8125 581.03125 L 481.601562 582.222656 L 482.390625 583.390625 L 483.179688 584.535156 L 483.96875 585.648438 L 484.757812 586.738281 L 485.550781 587.804688 L 486.339844 588.839844 L 487.128906 589.847656 L 487.917969 590.828125 L 488.707031 591.78125 L 489.496094 592.707031 L 490.285156 593.601562 L 491.074219 594.46875 L 491.867188 595.308594 L 492.65625 596.113281 L 493.445312 596.890625 L 494.234375 597.640625 L 495.023438 598.355469 L 495.8125 599.042969 L 496.601562 599.695312 L 497.394531 600.320312 L 498.183594 600.910156 L 498.972656 601.472656 L 499.761719 602 L 500.550781 602.496094 L 501.339844 602.960938 L 502.128906 603.390625 L 502.917969 603.792969 L 503.710938 604.15625 L 504.5 604.492188 L 505.289062 604.792969 L 506.078125 605.058594 L 506.867188 605.292969 L 507.65625 605.492188 L 508.445312 605.660156 L 509.238281 605.792969 L 510.027344 605.894531 L 510.816406 605.960938 L 511.605469 605.996094 L 512.394531 605.996094 L 513.183594 605.960938 L 513.972656 605.894531 L 514.761719 605.792969 L 515.554688 605.660156 L 516.34375 605.492188 L 517.132812 605.292969 L 517.921875 605.058594 L 518.710938 604.792969 L 519.5 604.492188 L 520.289062 604.15625 L 521.082031 603.792969 L 521.871094 603.390625 L 522.660156 602.960938 L 523.449219 602.496094 L 524.238281 602 L 525.027344 601.472656 L 525.816406 600.910156 L 526.605469 600.320312 L 527.398438 599.695312 L 528.1875 599.042969 L 528.976562 598.355469 L 529.765625 597.640625 L 530.554688 596.890625 L 531.34375 596.113281 L 532.132812 595.308594 L 532.925781 594.46875 L 533.714844 593.601562 L 534.503906 592.707031 L 535.292969 591.78125 L 536.082031 590.828125 L 536.871094 589.847656 L 537.660156 588.839844 L 538.449219 587.804688 L 539.242188 586.738281 L 540.03125 585.648438 L 540.820312 584.535156 L 541.609375 583.390625 L 542.398438 582.222656 L 543.1875 581.03125 L 543.976562 579.8125 L 544.765625 578.574219 L 545.558594 577.308594 L 546.347656 576.019531 L 547.136719 574.707031 L 547.925781 573.375 L 548.714844 572.019531 L 549.503906 570.640625 L 550.292969 569.242188 L 551.085938 567.824219 L 551.875 566.386719 L 552.664062 564.929688 L 553.453125 563.453125 L 554.242188 561.957031 L 555.03125 560.445312 L 555.820312 558.914062 L 556.609375 557.367188 L 557.402344 555.804688 L 558.191406 554.226562 L 558.980469 552.632812 L 559.769531 551.023438 L 560.558594 549.402344 L 561.347656 547.765625 L 562.136719 546.117188 L 562.929688 544.457031 L 563.71875 542.785156 L 564.507812 541.105469 L 565.296875 539.410156 L 566.085938 537.707031 L 566.875 535.996094 L 567.664062 534.273438 L 568.453125 532.546875 L 569.246094 530.808594 L 570.035156 529.066406 L 570.824219 527.316406 L 571.613281 525.5625 L 572.402344 523.804688 L 573.191406 522.042969 L 573.980469 520.273438 L 574.773438 518.503906 L 575.5625 516.734375 L 576.351562 514.957031 L 577.140625 513.183594 L 577.929688 511.40625 L 580.296875 506.085938 L 581.089844 504.316406 L 581.878906 502.546875 L 582.667969 500.78125 L 584.246094 497.265625 L 585.035156 495.515625 L 585.824219 493.769531 L 586.613281 492.03125 L 587.40625 490.300781 L 588.195312 488.578125 L 588.984375 486.863281 L 589.773438 485.15625 L 590.5625 483.460938 L 591.351562 481.773438 L 592.140625 480.097656 L 592.933594 478.433594 L 593.722656 476.78125 L 594.511719 475.140625 L 595.300781 473.515625 L 596.089844 471.902344 L 596.878906 470.304688 L 597.667969 468.71875 L 598.457031 467.152344 L 599.25 465.597656 L 600.039062 464.0625 L 600.828125 462.546875 L 601.617188 461.042969 L 602.40625 459.5625 L 603.195312 458.097656 L 603.984375 456.652344 L 604.777344 455.226562 L 605.566406 453.824219 L 606.355469 452.4375 L 607.144531 451.074219 L 607.933594 449.734375 L 608.722656 448.414062 L 609.511719 447.121094 L 610.300781 445.847656 L 611.09375 444.597656 L 611.882812 443.371094 L 612.671875 442.171875 L 613.460938 440.996094 L 614.25 439.84375 L 615.039062 438.71875 L 615.828125 437.621094 L 616.621094 436.546875 L 617.410156 435.503906 L 618.199219 434.484375 L 618.988281 433.496094 L 619.777344 432.53125 L 620.566406 431.597656 L 621.355469 430.691406 L 622.144531 429.816406 L 622.9375 428.96875 L 623.726562 428.152344 L 624.515625 427.363281 L 625.304688 426.605469 L 626.09375 425.878906 L 626.882812 425.183594 L 627.671875 424.519531 L 628.464844 423.882812 L 629.253906 423.28125 L 630.042969 422.710938 L 630.832031 422.171875 L 631.621094 421.664062 L 632.410156 421.191406 L 633.199219 420.746094 L 633.988281 420.339844 L 634.78125 419.960938 L 635.570312 419.617188 L 636.359375 419.304688 L 637.148438 419.027344 L 637.9375 418.78125 L 638.726562 418.570312 L 639.515625 418.390625 L 640.304688 418.246094 L 641.097656 418.132812 L 641.886719 418.054688 L 642.675781 418.011719 L 643.464844 418 L 644.253906 418.023438 L 645.042969 418.078125 L 645.832031 418.167969 L 646.625 418.289062 L 647.414062 418.445312 L 648.203125 418.636719 L 648.992188 418.859375 L 649.78125 419.117188 L 650.570312 419.40625 L 651.359375 419.726562 L 652.148438 420.082031 L 652.941406 420.472656 L 653.730469 420.890625 L 654.519531 421.34375 L 655.308594 421.832031 L 656.097656 422.347656 L 656.886719 422.898438 L 657.675781 423.480469 L 658.46875 424.09375 L 659.257812 424.738281 L 660.046875 425.414062 L 660.835938 426.117188 L 661.625 426.855469 L 662.414062 427.625 L 663.203125 428.421875 L 663.992188 429.25 L 664.785156 430.105469 L 665.574219 430.992188 L 666.363281 431.90625 L 667.152344 432.847656 L 667.941406 433.820312 L 668.730469 434.820312 L 669.519531 435.847656 L 670.3125 436.902344 L 671.101562 437.984375 L 671.890625 439.089844 L 672.679688 440.226562 L 673.46875 441.382812 L 674.257812 442.566406 L 675.046875 443.777344 L 675.835938 445.011719 L 676.628906 446.269531 L 677.417969 447.550781 L 678.207031 448.851562 L 678.996094 450.179688 L 679.785156 451.527344 L 680.574219 452.898438 L 681.363281 454.289062 L 682.15625 455.699219 L 682.945312 457.132812 L 683.734375 458.582031 L 684.523438 460.054688 L 685.3125 461.542969 L 686.101562 463.050781 L 686.890625 464.574219 L 687.679688 466.113281 L 688.472656 467.671875 L 689.261719 469.246094 L 690.050781 470.835938 L 690.839844 472.4375 L 691.628906 474.054688 L 692.417969 475.6875 L 693.207031 477.332031 L 693.996094 478.988281 L 694.789062 480.65625 L 695.578125 482.332031 L 696.367188 484.023438 L 697.15625 485.722656 L 697.945312 487.433594 L 698.734375 489.152344 L 699.523438 490.878906 L 700.316406 492.609375 L 701.105469 494.351562 L 701.894531 496.097656 L 702.683594 497.851562 L 703.472656 499.609375 L 704.261719 501.371094 L 705.050781 503.136719 L 705.839844 504.90625 L 706.632812 506.675781 L 707.421875 508.449219 L 708.210938 510.226562 L 709 512 "/>
</svg>
